<?xml version="1.0" encoding="UTF-8" standalone="no"?>
<!DOCTYPE svg PUBLIC "-//W3C//DTD SVG 1.1//EN" "http://www.w3.org/Graphics/SVG/1.1/DTD/svg11.dtd">
<!-- Generated by graphviz version 2.40.1 (20161225.0304)
 -->
<!-- Title: finite_state_machine Pages: 1 -->
<svg width="296pt" height="638pt" viewBox="0.00 0.00 296.27 638.12" xmlns="http://www.w3.org/2000/svg" xmlns:xlink="http://www.w3.org/1999/xlink">
<g id="graph0" class="graph" transform="scale(1 1) rotate(0) translate(4 634.1188)">
<title>finite_state_machine</title>
<polygon fill="#ffffff" stroke="transparent" points="-4,4 -4,-634.1188 292.2691,-634.1188 292.2691,4 -4,4"/>
<!-- RESET -->
<g id="node1" class="node">
<title>RESET</title>
<ellipse fill="#000000" stroke="#000000" cx="99.3829" cy="-628.3188" rx="1.8" ry="1.8"/>
</g>
<!-- A -->
<g id="node2" class="node">
<title>A</title>
<ellipse fill="none" stroke="#000000" cx="99.3829" cy="-495.336" rx="78.2657" ry="78.2657"/>
<text text-anchor="middle" x="99.3829" y="-507.536" font-family="Times,serif" font-size="14.00" fill="#000000">WAIT_ACTIVE</text>
<text text-anchor="middle" x="99.3829" y="-474.736" font-family="Times,serif" font-size="14.00" fill="#000000">pulse=off</text>
</g>
<!-- RESET&#45;&gt;A -->
<g id="edge1" class="edge">
<title>RESET-&gt;A</title>
<path fill="none" stroke="#000000" d="M99.3829,-626.4389C99.3829,-620.9316 99.3829,-603.9568 99.3829,-583.9684"/>
<polygon fill="#000000" stroke="#000000" points="102.883,-583.9509 99.3829,-573.9509 95.883,-583.9509 102.883,-583.9509"/>
<text text-anchor="middle" x="112.5954" y="-595.9188" font-family="Times,serif" font-size="14.00" fill="#000000">reset</text>
</g>
<!-- A&#45;&gt;A -->
<g id="edge2" class="edge">
<title>A-&gt;A</title>
<path fill="none" stroke="#000000" d="M175.7374,-513.2067C187.6465,-510.5351 195.7657,-504.5782 195.7657,-495.336 195.7657,-488.8376 191.7517,-483.9634 185.2286,-480.7134"/>
<polygon fill="#000000" stroke="#000000" points="186.332,-477.3918 175.7374,-477.4654 184.0655,-484.0147 186.332,-477.3918"/>
<text text-anchor="middle" x="238.2088" y="-491.136" font-family="Times,serif" font-size="14.00" fill="#000000">boton=inactivo</text>
</g>
<!-- B -->
<g id="node3" class="node">
<title>B</title>
<ellipse fill="none" stroke="#000000" cx="96.3829" cy="-297.3014" rx="66.704" ry="66.704"/>
<text text-anchor="middle" x="96.3829" y="-317.5014" font-family="Times,serif" font-size="14.00" fill="#000000">PULSE_GEN</text>
<text text-anchor="middle" x="96.3829" y="-268.7014" font-family="Times,serif" font-size="14.00" fill="#000000">pulse=on</text>
</g>
<!-- A&#45;&gt;B -->
<g id="edge3" class="edge">
<title>A-&gt;B</title>
<path fill="none" stroke="#000000" d="M37.1198,-447.3459C23.4389,-433.3726 10.8253,-416.9614 3.3873,-398.9533 -6.5342,-374.9323 8.7194,-352.9897 29.5649,-335.6887"/>
<polygon fill="#000000" stroke="#000000" points="31.7291,-338.4395 37.4615,-329.5294 27.4239,-332.9199 31.7291,-338.4395"/>
<text text-anchor="middle" x="41.3807" y="-386.3533" font-family="Times,serif" font-size="14.00" fill="#000000">boton=activo</text>
</g>
<!-- B&#45;&gt;A -->
<g id="edge4" class="edge">
<title>B-&gt;A</title>
<path fill="none" stroke="#000000" d="M97.3972,-364.2568C97.6029,-377.835 97.8223,-392.3148 98.0373,-406.5121"/>
<polygon fill="#000000" stroke="#000000" points="94.5418,-406.8373 98.1929,-416.7831 101.541,-406.7312 94.5418,-406.8373"/>
<text text-anchor="middle" x="140.826" y="-386.3533" font-family="Times,serif" font-size="14.00" fill="#000000">boton=inactivo</text>
</g>
<!-- C -->
<g id="node4" class="node">
<title>C</title>
<ellipse fill="none" stroke="#000000" cx="147.3829" cy="-88.8248" rx="88.6499" ry="88.6499"/>
<text text-anchor="middle" x="147.3829" y="-101.0248" font-family="Times,serif" font-size="14.00" fill="#000000">WAIT_INACTIVE</text>
<text text-anchor="middle" x="147.3829" y="-68.2248" font-family="Times,serif" font-size="14.00" fill="#000000">pulse=off</text>
</g>
<!-- B&#45;&gt;C -->
<g id="edge5" class="edge">
<title>B-&gt;C</title>
<path fill="none" stroke="#000000" d="M104.4532,-230.8099C106.3781,-219.0267 108.6786,-206.9242 111.3873,-195.6495 112.4313,-191.3041 113.5755,-186.8838 114.7936,-182.4368"/>
<polygon fill="#000000" stroke="#000000" points="118.2002,-183.253 117.5684,-172.677 111.467,-181.3386 118.2002,-183.253"/>
<text text-anchor="middle" x="149.3807" y="-199.8495" font-family="Times,serif" font-size="14.00" fill="#000000">boton=activo</text>
</g>
<!-- C&#45;&gt;A -->
<g id="edge6" class="edge">
<title>C-&gt;A</title>
<path fill="none" stroke="#000000" d="M179.9486,-171.7736C182.1494,-179.7495 184.0272,-187.7935 185.3829,-195.6495 200.7483,-284.6907 217.5738,-314.5248 185.3829,-398.9533 180.4968,-411.7682 173.0373,-423.9608 164.5127,-435.0972"/>
<polygon fill="#000000" stroke="#000000" points="161.6842,-433.0293 158.1388,-443.0133 167.1365,-437.4194 161.6842,-433.0293"/>
<text text-anchor="middle" x="245.826" y="-293.1014" font-family="Times,serif" font-size="14.00" fill="#000000">boton=inactivo</text>
</g>
</g>
</svg>